<?xml version="1.0" encoding="UTF-8" standalone="no"?>
<!DOCTYPE svg PUBLIC "-//W3C//DTD SVG 1.1//EN" "http://www.w3.org/Graphics/SVG/1.1/DTD/svg11.dtd">
<svg width="100%" height="100%" viewBox="0 0 1600 712" version="1.1" xmlns="http://www.w3.org/2000/svg" xmlns:xlink="http://www.w3.org/1999/xlink" xml:space="preserve" xmlns:serif="http://www.serif.com/" style="fill-rule:evenodd;clip-rule:evenodd;stroke-linejoin:round;stroke-miterlimit:2;">
    <g transform="matrix(1,0,0,1,-9086.17,-2765.24)">
        <g transform="matrix(2.36829,0,0,6.84707,8436.7,305.893)">
            <g transform="matrix(1,0,0,0.345884,104.055,207.607)">
                <path d="M485.841,443.413C484.329,443.413 482.844,444.358 481.386,446.248C479.928,448.138 479.199,450.757 479.199,454.105L479.199,544.339C479.199,547.687 479.928,550.306 481.386,552.196C482.844,554.086 484.329,555.031 485.841,555.031L485.841,558.109L443.559,558.109L443.559,555.031C445.071,555.031 446.556,554.086 448.014,552.196C449.472,550.306 450.201,547.687 450.201,544.339L450.201,466.093L416.343,550.333L402.249,550.333L371.469,469.009L371.469,544.339C371.469,547.687 372.333,550.306 374.061,552.196C375.789,554.086 377.517,555.031 379.245,555.031L379.245,558.109L353.325,558.109L353.325,555.031C355.053,555.031 356.754,554.086 358.428,552.196C360.102,550.306 360.939,547.687 360.939,544.339L360.939,454.105C360.939,450.649 360.291,448.3 358.995,447.058C357.699,445.816 355.917,445.195 353.649,445.195C345.765,445.195 339.825,447.463 335.829,451.999C331.833,456.535 329.835,462.313 329.835,469.333C329.835,469.873 329.862,470.332 329.916,470.71C329.97,471.088 329.997,471.547 329.997,472.087C330.429,478.351 332.886,484.453 337.368,490.393C341.85,496.333 348.573,501.085 357.537,504.649L356.889,505.783C352.677,507.727 348.681,509.131 344.901,509.995C341.121,510.859 337.611,511.291 334.371,511.291C329.511,511.291 325.245,510.454 321.573,508.78C317.901,507.106 314.796,504.865 312.258,502.057C309.72,499.249 307.803,496.009 306.507,492.337C305.211,488.665 304.563,484.777 304.563,480.673C304.563,475.705 305.67,470.791 307.884,465.931C310.098,461.071 313.176,456.778 317.118,453.052C321.06,449.326 325.812,446.302 331.374,443.98C336.936,441.658 343.119,440.497 349.923,440.497L391.557,440.497L419.907,515.503L450.201,440.497L485.841,440.497L485.841,443.413ZM550.155,543.367C554.475,542.827 558.147,541.423 561.171,539.155C564.195,536.887 566.517,534.403 568.137,531.703L571.053,532.675C569.433,536.563 567.408,540.154 564.978,543.448C562.548,546.742 559.659,549.604 556.311,552.034C552.963,554.464 549.264,556.381 545.214,557.785C541.164,559.189 536.709,559.891 531.849,559.891C526.017,559.891 520.536,558.757 515.406,556.489C510.276,554.221 505.794,551.116 501.96,547.174C498.126,543.232 495.102,538.669 492.888,533.485C490.674,528.301 489.567,522.793 489.567,516.961C489.567,511.129 490.674,505.621 492.888,500.437C495.102,495.253 498.126,490.69 501.96,486.748C505.794,482.806 510.276,479.674 515.406,477.352C520.536,475.03 526.017,473.869 531.849,473.869C537.681,473.869 543.081,475.03 548.049,477.352C553.017,479.674 557.283,482.806 560.847,486.748C564.411,490.69 567.219,495.253 569.271,500.437C571.323,505.621 572.349,511.129 572.349,516.961L517.269,516.961C517.917,520.525 518.997,523.927 520.509,527.167C522.021,530.407 523.938,533.242 526.26,535.672C528.582,538.102 531.39,540.046 534.684,541.504C537.978,542.962 541.785,543.691 546.105,543.691C546.753,543.691 547.401,543.664 548.049,543.61C548.697,543.556 549.399,543.475 550.155,543.367ZM545.943,511.453C544.107,501.301 541.515,493.93 538.167,489.34C534.819,484.75 531.417,482.455 527.961,482.455C524.721,482.455 521.913,484.372 519.537,488.206C517.161,492.04 515.973,497.521 515.973,504.649C515.973,506.809 516.135,509.077 516.459,511.453L545.943,511.453ZM608.961,545.959C608.961,548.875 609.636,551.17 610.986,552.844C612.336,554.518 613.659,555.355 614.955,555.355L614.955,558.271L576.561,558.271L576.561,555.355C577.965,555.355 579.342,554.437 580.692,552.601C582.042,550.765 582.717,548.281 582.717,545.149L582.717,492.985C582.717,489.853 582.069,487.396 580.773,485.614C579.477,483.832 578.127,482.941 576.723,482.941L576.723,480.025C582.015,480.025 587.415,479.377 592.923,478.081C598.431,476.785 602.967,475.165 606.531,473.221L608.961,475.003L608.961,545.959ZM595.029,466.903C592.869,466.903 590.871,466.525 589.035,465.769C587.199,465.013 585.606,463.987 584.256,462.691C582.906,461.395 581.826,459.883 581.016,458.155C580.206,456.427 579.801,454.591 579.801,452.647C579.801,450.703 580.206,448.84 581.016,447.058C581.826,445.276 582.906,443.737 584.256,442.441C585.606,441.145 587.199,440.119 589.035,439.363C590.871,438.607 592.869,438.229 595.029,438.229C599.133,438.229 602.616,439.633 605.478,442.441C608.34,445.249 609.771,448.651 609.771,452.647C609.771,454.591 609.393,456.427 608.637,458.155C607.881,459.883 606.828,461.395 605.478,462.691C604.128,463.987 602.562,465.013 600.78,465.769C598.998,466.525 597.081,466.903 595.029,466.903ZM702.435,546.769C702.651,549.469 703.407,551.575 704.703,553.087C705.999,554.599 707.241,555.355 708.429,555.355L708.429,558.271L670.035,558.271L670.035,555.355C671.439,555.355 672.816,554.437 674.166,552.601C675.516,550.765 676.191,548.281 676.191,545.149L676.191,500.437C676.191,495.469 675.435,491.986 673.923,489.988C672.411,487.99 670.575,486.991 668.415,486.991C666.795,486.991 665.094,487.504 663.312,488.53C661.53,489.556 659.883,490.879 658.371,492.499C656.859,494.119 655.617,495.928 654.645,497.926C653.673,499.924 653.187,501.895 653.187,503.839L653.187,545.959C653.187,548.767 653.862,551.035 655.212,552.763C656.562,554.491 657.885,555.355 659.181,555.355L659.181,558.271L620.787,558.271L620.787,555.355C622.191,555.355 623.568,554.437 624.918,552.601C626.268,550.765 626.943,548.281 626.943,545.149L626.943,492.985C626.943,489.853 626.295,487.396 624.999,485.614C623.703,483.832 622.353,482.941 620.949,482.941L620.949,480.025L623.379,480.025C628.239,480.025 633.18,479.35 638.202,478C643.224,476.65 647.409,475.057 650.757,473.221L653.187,475.003L653.187,488.935C656.643,484.399 660.693,480.97 665.337,478.648C669.981,476.326 674.571,475.165 679.107,475.165C682.131,475.165 685.074,475.678 687.936,476.704C690.798,477.73 693.309,479.323 695.469,481.483C697.629,483.643 699.357,486.343 700.653,489.583C701.949,492.823 702.597,496.603 702.597,500.923C702.597,508.591 702.57,516.286 702.516,524.008C702.462,531.73 702.435,539.317 702.435,546.769ZM288.93,700.399C290.55,699.967 292.44,699.751 294.6,699.751C297.3,699.751 299.946,700.129 302.538,700.885C305.13,701.641 307.452,702.721 309.504,704.125C311.556,705.529 313.203,707.203 314.445,709.147C315.687,711.091 316.308,713.251 316.308,715.627L316.308,716.437C316.092,719.893 314.985,722.998 312.987,725.752C310.989,728.506 308.424,730.828 305.292,732.718C302.16,734.608 298.569,736.066 294.519,737.092C290.469,738.118 286.284,738.631 281.964,738.631C276.78,738.631 271.569,737.848 266.331,736.282C261.093,734.716 256.395,732.232 252.237,728.83C248.079,725.428 244.704,721.108 242.112,715.87C239.52,710.632 238.224,704.287 238.224,696.835L238.224,636.733L205.824,636.733L205.824,679.339C205.824,682.687 206.553,685.306 208.011,687.196C209.469,689.086 210.954,690.031 212.466,690.031L212.466,693.109L170.184,693.109L170.184,690.031C171.696,690.031 173.181,689.086 174.639,687.196C176.097,685.306 176.826,682.687 176.826,679.339L176.826,589.105C176.826,585.757 176.097,583.138 174.639,581.248C173.181,579.358 171.696,578.413 170.184,578.413L170.184,575.497L212.466,575.497L212.466,578.413C210.954,578.413 209.469,579.358 208.011,581.248C206.553,583.138 205.824,585.757 205.824,589.105L205.824,629.767L238.224,629.767L238.224,589.105C238.224,585.757 237.495,583.138 236.037,581.248C234.579,579.358 233.094,578.413 231.582,578.413L231.582,575.497L273.864,575.497L273.864,578.413C272.352,578.413 270.867,579.358 269.409,581.248C267.951,583.138 267.222,585.757 267.222,589.105L267.222,706.069C267.222,710.713 267.519,714.628 268.113,717.814C268.707,721 269.517,723.592 270.543,725.59C271.569,727.588 272.757,729.046 274.107,729.964C275.457,730.882 276.834,731.341 278.238,731.341C279.75,731.341 281.262,730.855 282.774,729.883C284.286,728.911 285.636,727.615 286.824,725.995C288.012,724.375 288.984,722.458 289.74,720.244C290.496,718.03 290.874,715.681 290.874,713.197C290.874,710.929 290.685,708.769 290.307,706.717C289.929,704.665 289.308,702.883 288.444,701.371L288.93,700.399ZM337.854,678.367C342.174,677.827 345.846,676.423 348.87,674.155C351.894,671.887 354.216,669.403 355.836,666.703L358.752,667.675C357.132,671.563 355.107,675.154 352.677,678.448C350.247,681.742 347.358,684.604 344.01,687.034C340.662,689.464 336.963,691.381 332.913,692.785C328.863,694.189 324.408,694.891 319.548,694.891C313.716,694.891 308.235,693.757 303.105,691.489C297.975,689.221 293.493,686.116 289.659,682.174C285.825,678.232 282.801,673.669 280.587,668.485C278.373,663.301 277.266,657.793 277.266,651.961C277.266,646.129 278.373,640.621 280.587,635.437C282.801,630.253 285.825,625.69 289.659,621.748C293.493,617.806 297.975,614.674 303.105,612.352C308.235,610.03 313.716,608.869 319.548,608.869C325.38,608.869 330.78,610.03 335.748,612.352C340.716,614.674 344.982,617.806 348.546,621.748C352.11,625.69 354.918,630.253 356.97,635.437C359.022,640.621 360.048,646.129 360.048,651.961L304.968,651.961C305.616,655.525 306.696,658.927 308.208,662.167C309.72,665.407 311.637,668.242 313.959,670.672C316.281,673.102 319.089,675.046 322.383,676.504C325.677,677.962 329.484,678.691 333.804,678.691C334.452,678.691 335.1,678.664 335.748,678.61C336.396,678.556 337.098,678.475 337.854,678.367ZM333.642,646.453C331.806,636.301 329.214,628.93 325.866,624.34C322.518,619.75 319.116,617.455 315.66,617.455C312.42,617.455 309.612,619.372 307.236,623.206C304.86,627.04 303.672,632.521 303.672,639.649C303.672,641.809 303.834,644.077 304.158,646.453L333.642,646.453ZM396.66,680.959C396.66,683.875 397.335,686.17 398.685,687.844C400.035,689.518 401.358,690.355 402.654,690.355L402.654,693.271L364.26,693.271L364.26,690.355C365.664,690.355 367.041,689.437 368.391,687.601C369.741,685.765 370.416,683.281 370.416,680.149L370.416,627.985C370.416,624.853 369.768,622.396 368.472,620.614C367.176,618.832 365.826,617.941 364.422,617.941L364.422,615.025C369.714,615.025 375.114,614.377 380.622,613.081C386.13,611.785 390.666,610.165 394.23,608.221L396.66,610.003L396.66,680.959ZM382.728,601.903C380.568,601.903 378.57,601.525 376.734,600.769C374.898,600.013 373.305,598.987 371.955,597.691C370.605,596.395 369.525,594.883 368.715,593.155C367.905,591.427 367.5,589.591 367.5,587.647C367.5,585.703 367.905,583.84 368.715,582.058C369.525,580.276 370.605,578.737 371.955,577.441C373.305,576.145 374.898,575.119 376.734,574.363C378.57,573.607 380.568,573.229 382.728,573.229C386.832,573.229 390.315,574.633 393.177,577.441C396.039,580.249 397.47,583.651 397.47,587.647C397.47,589.591 397.092,591.427 396.336,593.155C395.58,594.883 394.527,596.395 393.177,597.691C391.827,598.987 390.261,600.013 388.479,600.769C386.697,601.525 384.78,601.903 382.728,601.903ZM440.238,680.149C440.238,683.281 440.886,685.765 442.182,687.601C443.478,689.437 444.828,690.355 446.232,690.355L446.232,693.271L407.838,693.271L407.838,690.355C409.134,690.355 410.43,689.518 411.726,687.844C413.022,686.17 413.778,683.875 413.994,680.959L413.994,594.451C413.994,591.319 413.319,588.835 411.969,586.999C410.619,585.163 409.242,584.245 407.838,584.245L407.838,581.329C413.238,581.329 418.665,580.708 424.119,579.466C429.573,578.224 434.136,576.631 437.808,574.687L440.238,576.469L440.238,680.149ZM527.07,622.639C527.178,623.287 527.259,623.881 527.313,624.421C527.367,624.961 527.394,625.501 527.394,626.041C527.394,628.417 526.935,630.577 526.017,632.521C525.099,634.465 523.857,636.139 522.291,637.543C520.725,638.947 518.943,640.027 516.945,640.783C514.947,641.539 512.814,641.917 510.546,641.917C508.17,641.917 505.794,641.431 503.418,640.459C504.822,638.623 505.524,636.463 505.524,633.979C505.524,631.495 504.795,629.335 503.337,627.499C501.879,625.663 500.07,624.745 497.91,624.745C495.426,624.745 492.834,626.149 490.134,628.957C488.946,630.145 487.92,631.387 487.056,632.683C486.192,633.979 485.436,635.221 484.788,636.409L484.788,680.959C484.788,683.875 485.463,686.17 486.813,687.844C488.163,689.518 489.486,690.355 490.782,690.355L490.782,693.271L452.388,693.271L452.388,690.355C453.792,690.355 455.169,689.437 456.519,687.601C457.869,685.765 458.544,683.281 458.544,680.149L458.544,627.985C458.544,624.853 457.896,622.396 456.6,620.614C455.304,618.832 453.954,617.941 452.55,617.941L452.55,615.025L454.98,615.025C459.84,615.025 464.781,614.35 469.803,613C474.825,611.65 479.01,610.057 482.358,608.221L484.788,610.003L484.788,625.717C487.488,620.209 491.187,616.024 495.885,613.162C500.583,610.3 505.254,608.869 509.898,608.869C514.002,608.869 517.62,609.949 520.752,612.109C523.884,614.269 525.99,617.779 527.07,622.639ZM617.466,682.741C616.71,683.821 615.873,684.874 614.955,685.9C614.037,686.926 613.146,687.871 612.282,688.735C610.554,690.355 608.259,691.597 605.397,692.461C602.535,693.325 599.538,693.757 596.406,693.757C594.138,693.757 591.924,693.514 589.764,693.028C587.604,692.542 585.687,691.759 584.013,690.679C582.339,689.599 580.989,688.249 579.963,686.629C578.937,685.009 578.424,683.065 578.424,680.797L578.424,676.909C576.588,679.717 574.428,682.282 571.944,684.604C569.46,686.926 566.652,688.843 563.52,690.355C559.308,692.299 555.042,693.271 550.722,693.271C547.806,693.271 545.052,692.839 542.46,691.975C539.868,691.111 537.573,689.815 535.575,688.087C533.577,686.359 531.957,684.253 530.715,681.769C529.473,679.285 528.852,676.423 528.852,673.183C528.852,670.807 529.257,668.404 530.067,665.974C530.877,663.544 532.119,661.276 533.793,659.17C535.467,657.064 537.573,655.12 540.111,653.338C542.649,651.556 545.7,650.125 549.264,649.045C552.18,648.181 555.204,647.425 558.336,646.777C561.468,646.129 564.411,645.373 567.165,644.509C569.919,643.645 572.295,642.511 574.293,641.107C576.291,639.703 577.668,637.759 578.424,635.275L578.424,633.493C578.424,627.337 577.506,622.936 575.67,620.29C573.834,617.644 571.728,616.321 569.352,616.321C566.76,616.321 564.276,617.617 561.9,620.209C559.524,622.801 558.174,626.149 557.85,630.253L557.85,631.225C557.85,632.629 558.066,634.222 558.498,636.004C558.93,637.786 559.686,639.001 560.766,639.649C559.578,641.161 557.904,642.322 555.744,643.132C553.584,643.942 551.262,644.347 548.778,644.347C546.942,644.347 545.133,644.104 543.351,643.618C541.569,643.132 539.976,642.376 538.572,641.35C537.168,640.324 536.034,638.974 535.17,637.3C534.306,635.626 533.874,633.601 533.874,631.225C533.874,627.769 534.846,624.637 536.79,621.829C538.734,619.021 541.299,616.618 544.485,614.62C547.671,612.622 551.289,611.083 555.339,610.003C559.389,608.923 563.574,608.383 567.894,608.383L569.19,608.383C573.618,608.491 577.965,609.058 582.231,610.084C586.497,611.11 590.277,612.757 593.571,615.025C596.865,617.293 599.538,620.236 601.59,623.854C603.642,627.472 604.668,631.927 604.668,637.219L604.668,680.149C604.668,681.661 605.073,682.741 605.883,683.389C606.693,684.037 607.638,684.361 608.718,684.361C609.906,684.361 611.121,684.037 612.363,683.389C613.605,682.741 614.604,681.823 615.36,680.635L617.466,682.741ZM571.134,677.719C572.43,676.963 573.726,675.937 575.022,674.641C576.318,673.345 577.452,671.671 578.424,669.619L578.424,643.375C575.076,645.535 571.539,648.073 567.813,650.989C564.087,653.905 560.982,657.091 558.498,660.547C556.446,663.571 555.42,666.595 555.42,669.619C555.42,672.427 556.257,674.803 557.931,676.747C559.605,678.691 561.846,679.663 564.654,679.663C566.706,679.663 568.866,679.015 571.134,677.719ZM698.142,677.233C698.142,680.365 698.817,682.822 700.167,684.604C701.517,686.386 702.894,687.277 704.298,687.277L704.298,690.193L701.382,690.193C696.522,690.193 691.581,690.679 686.559,691.651C681.537,692.623 677.46,694.027 674.328,695.863L671.898,693.919L671.898,688.411C672.762,687.547 673.653,686.71 674.571,685.9C675.489,685.09 676.38,684.253 677.244,683.389C680.484,680.473 683.724,677.719 686.964,675.127C688.8,673.615 690.636,672.13 692.472,670.672C694.308,669.214 696.198,667.729 698.142,666.217L698.142,677.233ZM741.072,681.121C741.18,684.037 741.882,686.305 743.178,687.925C744.474,689.545 745.77,690.355 747.066,690.355L747.066,693.271L708.51,693.271L708.51,690.355C709.59,690.355 710.535,690.004 711.345,689.302C712.155,688.6 712.803,687.763 713.289,686.791C713.775,685.819 714.126,684.739 714.342,683.551C714.558,682.363 714.666,681.283 714.666,680.311L714.666,651.313C718.554,648.613 722.442,645.994 726.33,643.456C730.218,640.918 734.052,638.407 737.832,635.923L741.072,633.979L741.072,681.121ZM839.568,681.769C839.784,684.469 840.513,686.575 841.755,688.087C842.997,689.599 844.266,690.355 845.562,690.355L845.562,693.271L807.006,693.271L807.006,690.355C808.41,690.355 809.787,689.464 811.137,687.682C812.487,685.9 813.162,683.443 813.162,680.311L813.162,635.437C813.162,630.469 812.433,626.986 810.975,624.988C809.517,622.99 807.708,621.991 805.548,621.991C803.928,621.991 802.227,622.477 800.445,623.449C798.663,624.421 797.043,625.717 795.585,627.337C794.127,628.957 792.912,630.739 791.94,632.683C790.968,634.627 790.428,636.571 790.32,638.515C790.428,641.539 790.482,644.536 790.482,647.506L790.482,669.295C790.482,673.507 790.428,677.665 790.32,681.769C790.536,684.469 791.292,686.575 792.588,688.087C793.884,689.599 795.126,690.355 796.314,690.355L796.314,693.271L757.758,693.271L757.758,690.355C759.162,690.355 760.539,689.464 761.889,687.682C763.239,685.9 763.914,683.443 763.914,680.311L763.914,635.437C763.914,630.469 763.185,626.986 761.727,624.988C760.269,622.99 758.46,621.991 756.3,621.991L755.652,621.991C754.356,622.099 752.79,622.585 750.954,623.449C749.118,624.313 746.958,625.447 744.474,626.851C738.21,630.199 731.73,634.195 725.034,638.839C718.338,643.483 711.534,648.532 704.622,653.986C697.71,659.44 690.798,665.218 683.886,671.32C676.974,677.422 670.224,683.605 663.636,689.869C658.236,693.757 652.566,695.701 646.626,695.701C643.386,695.701 640.2,695.08 637.068,693.838C633.936,692.596 631.182,690.787 628.806,688.411C626.43,686.035 624.513,683.092 623.055,679.582C621.597,676.072 620.868,671.995 620.868,667.351L620.868,652.933C620.868,648.505 620.895,644.239 620.949,640.135C621.003,636.031 621.03,631.549 621.03,626.689C620.814,623.881 620.085,621.721 618.843,620.209C617.601,618.697 616.332,617.941 615.036,617.941L615.036,615.025L616.98,615.025C619.356,615.025 621.84,614.836 624.432,614.458C627.024,614.08 629.562,613.567 632.046,612.919C634.53,612.271 636.879,611.542 639.093,610.732C641.307,609.922 643.278,609.085 645.006,608.221L647.436,610.165L647.436,667.999C647.436,672.967 648.381,676.477 650.271,678.529C652.161,680.581 654.348,681.607 656.832,681.607C659.1,681.607 661.476,680.905 663.96,679.501C664.5,679.177 664.986,678.853 665.418,678.529C665.85,678.205 666.282,677.827 666.714,677.395L671.898,673.183L671.898,627.499C671.898,624.583 671.223,622.261 669.873,620.533C668.523,618.805 667.2,617.941 665.904,617.941L665.904,615.025L667.848,615.025C672.708,615.025 677.73,614.35 682.914,613C688.098,611.65 692.418,610.057 695.874,608.221L698.142,610.165L698.142,653.095C699.762,651.907 701.22,650.8 702.516,649.774C703.812,648.748 705.081,647.776 706.323,646.858C707.565,645.94 708.861,644.968 710.211,643.942C711.561,642.916 713.1,641.809 714.828,640.621L714.828,627.985C714.828,624.853 714.153,622.396 712.803,620.614C711.453,618.832 710.076,617.941 708.672,617.941L708.672,615.025L711.426,615.025C715.962,615.025 720.552,614.431 725.196,613.243C729.84,612.055 734.322,610.381 738.642,608.221L741.072,610.165L741.072,620.695C745.824,617.671 749.766,615.295 752.898,613.567C757.434,611.299 762.024,610.165 766.668,610.165C771.528,610.165 775.983,611.461 780.033,614.053C784.083,616.645 786.972,620.641 788.7,626.041C792.048,620.749 796.206,616.78 801.174,614.134C806.142,611.488 811.11,610.165 816.078,610.165C819.102,610.165 822.045,610.705 824.907,611.785C827.769,612.865 830.28,614.458 832.44,616.564C834.6,618.67 836.328,621.343 837.624,624.583C838.92,627.823 839.568,631.603 839.568,635.923L839.568,681.769Z" style="fill:rgb(225,170,68);"/>
            </g>
        </g>
    </g>
</svg>
